<svg id="Layer_1" data-name="Layer 1" xmlns="http://www.w3.org/2000/svg" viewBox="0 0 72.81 39.38"><defs><style>.cls-1{fill:#ff6f02;}.cls-2{fill:#2f4858;}</style></defs><title>Artboard 1</title><path class="cls-1" d="M7.61,32.52a17.61,17.61,0,0,0,24.14,0L33.21,34A19.68,19.68,0,0,1,6.15,34Z"/><path class="cls-1" d="M2.07,20.26a17.58,17.58,0,0,0,4.78,11.5L5.38,33.22A19.61,19.61,0,0,1,0,20.23H2.07Z"/><path class="cls-1" d="M6.85,7.62A17.56,17.56,0,0,0,2.07,19.15H0a19.62,19.62,0,0,1,5.38-13Z"/><path class="cls-1" d="M7.61,6.86,6.15,5.4a19.68,19.68,0,0,1,27.07,0L31.75,6.86a17.61,17.61,0,0,0-24.14,0Z"/><path class="cls-1" d="M9.81,30.33a14.5,14.5,0,0,0,19.75,0L31,31.79a16.57,16.57,0,0,1-22.67,0Z"/><path class="cls-1" d="M5.18,20.23A14.46,14.46,0,0,0,9,29.56L7.58,31A16.53,16.53,0,0,1,3.11,20.23Z"/><path class="cls-1" d="M9,9.82a14.45,14.45,0,0,0-3.87,9.33H3.11A16.55,16.55,0,0,1,7.58,8.36Z"/><path class="cls-1" d="M19.71,3.11A16.56,16.56,0,0,1,31,7.59L29.55,9.05a14.49,14.49,0,0,0-19.75,0L8.34,7.59a16.7,16.7,0,0,1,3.91-2.73,16.5,16.5,0,0,1,4.62-1.52A16.89,16.89,0,0,1,19.71,3.11Z"/><path class="cls-1" d="M12,28.13a11.4,11.4,0,0,0,15.35,0l1.47,1.46a13.47,13.47,0,0,1-18.28,0Z"/><path class="cls-1" d="M8.29,20.23a11.36,11.36,0,0,0,3,7.13L9.78,28.83a13.43,13.43,0,0,1-3.56-8.6Z"/><path class="cls-1" d="M11.24,12a11.36,11.36,0,0,0-3,7.13H6.21a13.43,13.43,0,0,1,3.56-8.6Z"/><path class="cls-1" d="M14.2,25.93a8.3,8.3,0,0,0,11,0l1.47,1.47a10.37,10.37,0,0,1-13.89,0Z"/><path class="cls-1" d="M11.4,20.23a8.27,8.27,0,0,0,2,4.93L12,26.63a10.33,10.33,0,0,1-2.65-6.4Z"/><path class="cls-2" d="M31,19.71a4.07,4.07,0,0,0,4.18,4.23,4.13,4.13,0,0,0,3.06-1.26l-.36-.57a3.58,3.58,0,0,1-2.71,1.17,3.41,3.41,0,0,1-3.47-3.56,3.42,3.42,0,0,1,3.47-3.6,3.52,3.52,0,0,1,2.48,1l.42-.55a3.91,3.91,0,0,0-2.9-1.15A4.12,4.12,0,0,0,31,19.71Z"/><path class="cls-2" d="M40.11,22.23a1.51,1.51,0,0,0,1.59,1.7,1.58,1.58,0,0,0,.29,0v-.63l-.24,0c-.37,0-1-.13-1-1.26V12.53h-.68Z"/><path class="cls-2" d="M43.48,20.78c0,2.06.68,3.16,2.67,3.16a3.68,3.68,0,0,0,3.35-2.28h0a3.38,3.38,0,0,0-.07.66v1.43h.68v-8.1h-.68v4a3.47,3.47,0,0,1-3.32,3.68c-1.81,0-2-1.33-2-2.74V15.64h-.68Z"/><path class="cls-2" d="M52.94,20.94c0,2.69,1.73,3,2.58,3a2.31,2.31,0,0,0,.4,0v-.63a1.88,1.88,0,0,1-.37,0c-.65,0-1.93-.28-1.93-2.41V16.43h2.12v-.62H53.62v-2.3h-.68v2.3H51.87v.62h1.07Z"/><path class="cls-2" d="M56.88,19.71a4.07,4.07,0,0,0,4.18,4.23,4.13,4.13,0,0,0,3.06-1.26l-.36-.57a3.57,3.57,0,0,1-2.71,1.17,3.41,3.41,0,0,1-3.47-3.56,3.42,3.42,0,0,1,3.47-3.6,3.52,3.52,0,0,1,2.48,1L64,16.6a3.91,3.91,0,0,0-2.9-1.15A4.12,4.12,0,0,0,56.88,19.71Z"/><path class="cls-2" d="M66,23.94h.68V20a4,4,0,0,1,.13-1.1,3.44,3.44,0,0,1,3.27-2.58c1.82,0,2,1.33,2,2.74v4.89h.68V18.8c0-1.91-.57-3.16-2.67-3.16a3.73,3.73,0,0,0-3.43,2.28h0a3.4,3.4,0,0,0,.06-.66V12.59H66Z"/></svg>